HIERARCHY
ROOT Hips
{
	OFFSET 0.00000 0.00000 0.00000
	CHANNELS 6 Xposition Yposition Zposition Zrotation Yrotation Xrotation 
	JOINT LHipJoint
	{
		OFFSET 0 0 0
		CHANNELS 3 Zrotation Yrotation Xrotation
		JOINT LeftUpLeg
		{
			OFFSET 1.44361 -1.63093 0.70831
			CHANNELS 3 Zrotation Yrotation Xrotation
			JOINT LeftLeg
			{
				OFFSET 2.20103 -6.04728 0.00000
				CHANNELS 3 Zrotation Yrotation Xrotation
				JOINT LeftFoot
				{
					OFFSET 2.54154 -6.98283 0.00000
					CHANNELS 3 Zrotation Yrotation Xrotation
					JOINT LeftToeBase
					{
						OFFSET 0.05971 -0.16406 1.77582
						CHANNELS 3 Zrotation Yrotation Xrotation
						End Site
						{
							OFFSET 0.00000 -0.00000 0.90832
						}
					}
				}
			}
		}
	}
	JOINT RHipJoint
	{
		OFFSET 0 0 0
		CHANNELS 3 Zrotation Yrotation Xrotation
		JOINT RightUpLeg
		{
			OFFSET -1.65838 -1.63093 0.70830
			CHANNELS 3 Zrotation Yrotation Xrotation
			JOINT RightLeg
			{
				OFFSET -2.26926 -6.23475 0.00000
				CHANNELS 3 Zrotation Yrotation Xrotation
				JOINT RightFoot
				{
					OFFSET -2.34808 -6.45129 0.00000
					CHANNELS 3 Zrotation Yrotation Xrotation
					JOINT RightToeBase
					{
						OFFSET -0.18633 -0.51195 1.68539
						CHANNELS 3 Zrotation Yrotation Xrotation
						End Site
						{
							OFFSET -0.00000 -0.00000 0.88927
						}
					}
				}
			}
		}
	}
	JOINT LowerBack
	{
		OFFSET 0 0 0
		CHANNELS 3 Zrotation Yrotation Xrotation
		JOINT Spine
		{
			OFFSET -0.10393 2.01691 0.06920
			CHANNELS 3 Zrotation Yrotation Xrotation
			JOINT Spine1
			{
				OFFSET 0.04092 2.01302 -0.05283
				CHANNELS 3 Zrotation Yrotation Xrotation
				JOINT Neck
				{
					OFFSET 0 0 0
					CHANNELS 3 Zrotation Yrotation Xrotation
					JOINT Neck1
					{
						OFFSET -0.02870 1.58978 -0.03113
						CHANNELS 3 Zrotation Yrotation Xrotation
						JOINT Head
						{
							OFFSET 0.11532 1.54326 -0.29195
							CHANNELS 3 Zrotation Yrotation Xrotation
							End Site
							{
								OFFSET 0.04056 1.59999 -0.09535
							}
						}
					}
				}
				JOINT LeftShoulder
				{
					OFFSET 0 0 0
					CHANNELS 3 Zrotation Yrotation Xrotation
					JOINT LeftArm
					{
						OFFSET 3.30641 1.15764 0.01104
						CHANNELS 3 Zrotation Yrotation Xrotation
						JOINT LeftForeArm
						{
							OFFSET 4.63208 -0.00000 0.00000
							CHANNELS 3 Zrotation Yrotation Xrotation
							JOINT LeftHand
							{
								OFFSET 3.41924 -0.00000 -0.00000
								CHANNELS 3 Zrotation Yrotation Xrotation
								JOINT LeftFingerBase
								{
									OFFSET 0 0 0
									CHANNELS 3 Zrotation Yrotation Xrotation
									JOINT LeftHandIndex1
									{
										OFFSET 0.62537 -0.00000 -0.00000
										CHANNELS 3 Zrotation Yrotation Xrotation
										End Site
										{
											OFFSET 0.50419 -0.00000 -0.00000
										}
									}
								}
								JOINT LThumb
								{
									OFFSET 0 0 0
									CHANNELS 3 Zrotation Yrotation Xrotation
									End Site
									{
										OFFSET 0.51189 -0.00000 0.51189
									}
								}
							}
						}
					}
				}
				JOINT RightShoulder
				{
					OFFSET 0 0 0
					CHANNELS 3 Zrotation Yrotation Xrotation
					JOINT RightArm
					{
						OFFSET -3.78081 1.02180 -0.16609
						CHANNELS 3 Zrotation Yrotation Xrotation
						JOINT RightForeArm
						{
							OFFSET -4.40640 -0.00000 -0.00000
							CHANNELS 3 Zrotation Yrotation Xrotation
							JOINT RightHand
							{
								OFFSET -3.44675 -0.00000 0.00000
								CHANNELS 3 Zrotation Yrotation Xrotation
								JOINT RightFingerBase
								{
									OFFSET 0 0 0
									CHANNELS 3 Zrotation Yrotation Xrotation
									JOINT RightHandIndex1
									{
										OFFSET -0.51367 -0.00000 -0.00000
										CHANNELS 3 Zrotation Yrotation Xrotation
										End Site
										{
											OFFSET -0.41414 -0.00000 -0.00000
										}
									}
								}
								JOINT RThumb
								{
									OFFSET 0 0 0
									CHANNELS 3 Zrotation Yrotation Xrotation
									End Site
									{
										OFFSET -0.42046 -0.00000 0.42046
									}
								}
							}
						}
					}
				}
			}
		}
	}
}
MOTION
Frames: 14
Frame Time: 0.142857
0.00 0.00 0.00 0 0 0 0 0 0 -21 0 0 0 0 0 0 0 0 0 0 0 0 0 0 21 0 0 0 0 0 0 0 0 0 0 0 0 0 0 0 0 0 0 0 0 0 0 -16 0 0 21 0 0 11 0 0 0 -8 0 0 0 0 0 0 0 0 0 0 0 0 0 0 0 0 0 0 0 0 8 0 0 0 0 0 0 0 0 0 0 0 0 0 0 0 0 0
0.00 0.00 0.00 178.4920 2.0086 -170.8680 0.0000 0.0000 0.0000 -19.6856 -12.7228 -10.2109 1.5589 7.8796 22.3490 0.9948 -8.8367 -17.9408 3.6583 -11.6912 -34.6482 0.0000 0.0000 0.0000 20.5860 7.2933 -6.8638 -0.7451 -5.5139 15.3803 -1.3485 3.3137 -21.1156 -0.8352 5.8298 -16.2915 -6.4203 0.8373 -7.0149 0.5420 1.6641 1.1596 4.3623 0.6335 4.9594 -3.2938 1.0241 -11.6742 4.9855 -1.8327 30.6110 2.0100 -1.4824 12.0271 0.0000 0.0000 0.0000 -88.6144 -2.1081 19.2463 9.4809 -15.9236 -1.3290 -0.0000 -0.0000 28.2626 28.6537 -20.4214 -10.7947 -7.1250 0.0000 -0.0000 0.0955 6.9891 -0.0832 0.0000 0.0000 0.0000 93.1870 -4.8446 -17.5756 -10.1311 16.9443 -1.5129 0.0000 0.0000 27.8416 -17.8395 -38.2938 11.2787 7.1250 -0.0000 -0.0000 23.8155 -68.2554 -13.5901
0.00 0.00 0.00 179.4700 0.3872 -170.8540 0.0000 0.0000 0.0000 -17.1733 -16.4184 -22.3750 5.4401 13.8629 42.6908 0.9619 -4.8922 -17.5426 5.3691 -13.7878 -42.3939 0.0000 0.0000 0.0000 22.3639 6.7052 -7.0708 -0.7727 -5.6127 15.6647 -1.4397 3.8453 -21.7551 -0.5657 4.8170 -13.3875 -4.6684 0.9639 -4.7964 1.0833 1.5497 1.5977 3.8750 0.6323 4.1973 -3.8599 0.8739 -11.0505 4.5306 -1.8716 30.7840 1.9321 -1.6435 11.9666 0.0000 0.0000 0.0000 -89.1327 -2.4430 19.6968 10.3521 -17.2884 -1.5780 -0.0000 -0.0000 25.9016 28.8199 -20.3573 -10.8355 -7.1250 0.0000 -0.0000 0.2090 7.0271 -0.1819 0.0000 0.0000 0.0000 92.4518 -4.3227 -16.7989 -9.8569 16.5155 -1.4340 0.0000 0.0000 25.8874 -17.1631 -38.3481 10.8475 7.1250 -0.0000 -0.0000 24.6781 -68.0949 -14.0164
0.00 0.00 0.00 178.9280 6.9013 -167.6200 0.0000 0.0000 0.0000 -7.5521 -20.3789 -57.7366 7.4198 15.6755 50.4448 1.2592 -6.1622 -20.0719 2.4460 -9.7391 -28.1358 0.0000 0.0000 0.0000 20.3886 4.8050 3.3136 -0.6884 -5.3045 14.7790 -0.2496 2.5863 -8.8966 -2.1442 9.1602 -26.2978 -5.9991 4.1276 2.8932 -1.4175 5.8403 4.7113 1.8381 2.8943 2.8294 -3.4805 0.0346 -8.7036 5.0992 -2.4843 26.0604 1.9993 -1.5762 9.7496 0.0000 -0.0000 0.0000 -87.4545 0.7223 -12.3047 5.3001 -9.0899 -0.4216 -0.0000 -0.0000 51.8929 27.8104 -21.4372 -10.9117 -7.1250 0.0000 -0.0000 -0.5674 6.0433 0.5045 0.0000 -0.0000 0.0000 92.8348 10.1601 20.3758 -17.4433 27.4385 -4.2896 0.0000 0.0000 6.5601 -18.5326 -33.8575 10.5790 7.1250 -0.0000 -0.0000 17.9780 -64.4002 -8.5781
0.00 0.00 0.00 179.6970 6.7505 -165.5290 0.0000 0.0000 0.0000 -11.1285 -19.5295 -47.3040 5.5522 13.9799 43.1569 1.6852 -8.4999 -23.2552 3.2118 -11.0303 -32.3820 0.0000 0.0000 0.0000 19.6024 6.2420 -6.0862 -2.9312 -10.5829 30.8857 -0.2575 -6.9918 9.6007 -1.5057 7.7501 -21.9574 -8.0248 4.1609 2.4677 -1.6949 5.8459 4.1036 2.6600 2.8583 2.2850 -3.0914 -0.6014 -7.5725 6.9664 -3.3554 22.5509 2.4706 -1.6898 8.3861 -0.0000 -0.0000 0.0000 -87.4025 -1.7588 -0.0546 6.2230 -10.6336 -0.5797 -0.0000 -0.0000 40.4191 24.7095 -18.8526 -8.4574 -7.1250 0.0000 -0.0000 -2.2575 9.3930 1.8603 -0.0000 -0.0000 0.0000 92.5793 6.9780 17.0506 -15.8659 25.3385 -3.5884 0.0000 0.0000 8.8492 -17.4266 -33.1526 9.7404 7.1250 -0.0000 -0.0000 18.5853 -63.4404 -8.4615
0.00 0.00 0.00 179.1080 6.5451 -165.6040 0.0000 0.0000 0.0000 -14.3843 -18.3764 -40.8584 4.3835 12.6539 38.0863 1.7274 -9.4771 -23.5742 3.4785 -11.4320 -33.7510 0.0000 0.0000 0.0000 18.3370 7.8751 -16.9702 -7.2971 -15.5771 49.9894 0.0453 -10.7114 6.7814 -1.2799 7.1694 -20.2183 -9.5272 3.4468 2.7709 -2.0188 4.8772 3.9549 3.1463 2.3715 1.9875 -3.4045 -0.7367 -5.5865 8.0700 -3.3406 19.4609 2.8780 -1.6358 7.0225 0.0000 -0.0000 0.0000 -86.4883 -2.0929 13.6286 8.1991 -13.8751 -0.9993 -0.0000 -0.0000 28.8098 25.2289 -18.7423 -8.6090 -7.1250 0.0000 -0.0000 -1.9101 9.4288 1.5722 0.0000 -0.0000 0.0000 92.8863 4.6985 14.3942 -15.0703 24.2440 -3.2548 0.0000 0.0000 9.0158 -16.8951 -35.0068 9.8841 7.1250 -0.0000 -0.0000 20.9831 -65.0176 -10.3690
0.00 0.00 0.00 177.9470 4.2749 -167.7110 0.0000 0.0000 0.0000 -21.3585 -15.7926 -24.2563 2.1797 9.2308 26.5200 1.7785 -10.5830 -23.9839 3.7749 -11.8547 -35.2199 0.0000 0.0000 0.0000 14.5328 13.0285 -39.1445 -13.5175 -18.9611 70.7254 -0.2173 -3.9469 -11.1641 -1.5982 7.9735 -22.6337 -10.5786 1.7293 3.8130 -1.9416 2.4201 3.6023 3.8299 1.1695 1.3067 -2.1556 -0.4917 -4.6701 7.7000 -2.8496 17.6308 2.5733 -1.3665 6.2306 0.0000 0.0000 0.0000 -85.8341 -6.5426 26.5843 12.2978 -20.2498 -2.2043 -0.0000 -0.0000 22.1436 27.7686 -17.9940 -9.2387 -7.1250 0.0000 -0.0000 -0.1818 9.8227 0.1481 0.0000 0.0000 0.0000 93.5334 -4.2864 0.6018 -13.2894 21.7098 -2.5594 0.0000 0.0000 14.2119 -17.6899 -37.1776 10.9092 7.1250 -0.0000 -0.0000 22.5400 -67.2164 -12.3061
0.00 0.00 0.00 177.5750 2.7390 -169.7330 0.0000 0.0000 0.0000 -25.3821 -11.8813 -10.4535 0.9849 6.3169 17.7068 1.7971 -11.4497 -24.1832 4.0456 -12.2208 -36.5175 0.0000 0.0000 0.0000 9.4161 16.2600 -52.8650 -8.4699 -16.4542 54.2380 -0.8075 -1.5149 -17.5881 -2.0877 9.0465 -25.9408 -11.2770 -0.2475 4.1077 -0.2856 -0.3524 3.7187 6.0420 -0.3066 1.6920 -2.8931 -0.8846 -7.0154 6.0415 -0.9974 19.4314 2.4126 0.1977 7.1297 0.0000 0.0000 0.0000 -87.6316 -10.6925 33.3575 18.4917 -28.7822 -4.7836 -0.0000 -0.0000 13.0548 31.7228 -20.1982 -12.0480 -7.1250 0.0000 -0.0000 2.0649 6.6036 -1.8149 0.0000 0.0000 0.0000 91.2200 -8.3870 -19.7103 -9.1874 15.4585 -1.2496 0.0000 0.0000 31.5795 -16.7315 -36.5715 10.1548 7.1250 -0.0000 -0.0000 22.9111 -66.3903 -12.0878
0.00 0.00 0.00 176.9580 -0.0212 -170.8630 0.0000 0.0000 0.0000 -27.0707 -9.1292 -2.0810 0.6668 5.2221 14.5431 1.7607 -13.3667 -24.2002 4.4369 -12.7201 -38.3296 0.0000 0.0000 0.0000 5.9104 15.4273 -56.0311 -3.6950 -11.7431 34.8292 -0.4862 -0.1696 -13.2370 -3.0826 10.8276 -31.7007 -10.8246 -0.7089 4.7606 0.4267 -1.5889 3.9220 6.5723 -1.1705 1.7347 -2.8811 -1.1851 -7.6202 5.7302 -1.2908 20.7503 2.3133 0.0920 7.6842 -0.0000 -0.0000 0.0000 -87.6876 -13.3682 38.2863 22.1090 -33.1000 -6.6453 -0.0000 -0.0000 15.0102 31.8560 -20.5733 -12.3175 -7.1250 0.0000 -0.0000 2.0925 6.1523 -1.8575 -0.0000 -0.0000 0.0000 92.2749 -10.7107 -38.1311 -7.4526 12.6617 -0.8280 0.0000 0.0000 42.9277 -15.4792 -36.4980 9.3537 7.1250 -0.0000 -0.0000 24.2442 -65.9634 -12.5898
0.00 0.00 0.00 176.9290 -3.0937 -167.4020 0.0000 0.0000 0.0000 -25.9609 -7.3393 5.2131 0.8618 5.9197 16.5515 0.2748 -4.5010 -9.3733 5.2674 -13.6787 -41.9653 0.0000 0.0000 0.0000 7.2253 16.8120 -52.5024 -4.8523 -13.2155 40.1805 -0.4958 -2.6381 -14.5242 -1.8494 8.5451 -24.3825 -5.8937 -1.1439 4.7119 2.6719 -1.9992 3.9138 6.1517 -1.2854 1.7070 -4.3274 -1.2483 -7.2441 4.4600 -0.9630 20.0893 2.1513 -0.0175 7.3901 0.0000 0.0000 0.0000 -90.8249 -10.8660 31.9982 13.7217 -22.3354 -2.7214 -0.0000 -0.0000 21.1023 31.2606 -21.0676 -12.3103 -7.1250 0.0000 -0.0000 1.6456 5.7298 -1.4737 0.0000 0.0000 0.0000 90.5138 -7.7814 -43.4670 -6.8173 11.6182 -0.6944 0.0000 0.0000 48.0164 -13.5842 -35.6327 8.0130 7.1250 -0.0000 -0.0000 25.3491 -64.6657 -12.4400
0.00 0.00 0.00 176.0530 -1.2075 -164.9650 0.0000 0.0000 0.0000 -25.0066 -6.0642 -5.0958 3.2554 11.0975 32.6093 0.0932 6.8500 6.8044 5.8814 -14.3124 -44.5038 0.0000 0.0000 0.0000 10.1649 15.6218 -42.5678 -3.4206 -11.3466 33.4579 -1.0904 2.4741 -19.0669 -1.0115 6.3992 -17.9471 -4.8470 -0.8299 3.8238 2.8410 -1.4695 3.4965 5.7030 -0.9676 1.6618 -5.7489 -1.2022 -6.0566 4.4130 -0.6546 20.1120 2.4013 0.0373 7.1803 -0.0000 -0.0000 0.0000 -90.3847 -6.0885 8.6887 6.4986 -11.0911 -0.6316 -0.0000 -0.0000 43.0469 25.7648 -20.5598 -9.6204 -7.1250 0.0000 -0.0000 -1.7551 7.3779 1.5159 -0.0000 -0.0000 0.0000 87.3671 -2.3140 -21.1640 -9.0182 15.1894 -1.2049 0.0000 0.0000 29.3907 -15.4780 -36.7491 9.4073 7.1250 -0.0000 -0.0000 24.5463 -66.1854 -12.8793
0.00 0.00 0.00 180.7690 4.3806 -171.5960 0.0000 0.0000 0.0000 -4.2941 -19.5553 -54.2730 3.5418 11.5243 34.0692 1.1979 -1.7760 -20.1788 5.3183 -13.7335 -42.1803 0.0000 0.0000 0.0000 24.9839 4.9962 -2.0884 -0.7249 -5.4404 15.1691 -2.0861 11.1317 -25.9998 -1.1319 6.7571 -18.9977 -2.7600 3.4327 5.3640 1.1214 4.8289 4.9223 2.5080 2.4756 1.7611 -2.7481 0.5623 -9.5180 3.7815 -2.0478 28.8981 1.4494 -1.5717 10.9162 -0.0000 -0.0000 0.0000 -86.7615 1.9275 4.9090 7.7600 -13.1631 -0.8967 -0.0000 -0.0000 33.3660 26.2723 -22.0761 -10.5102 -7.1250 0.0000 -0.0000 -1.6115 5.6510 1.4456 -0.0000 -0.0000 0.0000 90.2045 16.1088 32.5308 -23.1644 34.2681 -7.2306 0.0000 0.0000 0.9589 -17.1556 -34.6279 9.9495 7.1250 -0.0000 -0.0000 20.2981 -64.7411 -9.8874
0.00 0.00 0.00 175.9660 -0.1411 -170.7760 0.0000 0.0000 0.0000 -28.6550 -7.4011 -2.8715 0.6235 5.0529 14.0594 2.0078 -12.7053 -25.6600 6.5031 -14.8987 -46.9689 0.0000 0.0000 0.0000 6.1943 14.3381 -54.3246 -2.7220 -10.2308 29.7276 0.0691 -4.7275 -0.8705 -3.4568 11.4002 -33.6419 -11.7837 -0.7282 4.9269 -0.6185 -1.8042 5.5392 5.9683 -1.5496 3.3907 -2.3197 -1.6218 -8.6018 6.2312 -1.2489 28.3849 2.6440 0.6893 10.5426 0.0000 -0.0000 0.0000 -86.4472 -12.8556 34.7867 17.9005 -28.0295 -4.5024 -0.0000 -0.0000 16.7253 29.2409 -20.6499 -11.1679 -7.1250 0.0000 -0.0000 0.4366 6.6205 -0.3834 0.0000 -0.0000 0.0000 94.3944 -11.8151 -69.6572 -5.7127 9.7822 -0.4893 0.0000 0.0000 74.3701 -13.1770 -37.6003 8.1298 7.1250 -0.0000 -0.0000 28.1714 -66.2587 -14.9523
0.00 0.00 0.00 176.8430 -3.5160 -168.5160 0.0000 0.0000 0.0000 -25.7936 -7.9138 0.4642 0.8113 5.7480 16.0549 1.3688 -12.7557 -21.4610 7.7382 -15.9233 -51.6141 0.0000 0.0000 0.0000 7.9266 16.5815 -53.6843 -4.2869 -12.5327 37.6434 -0.0173 -6.5660 -9.7908 -0.3494 3.7977 -10.5083 -10.3022 -2.1550 4.5134 0.6914 -3.5515 5.4199 6.5109 -2.3710 3.8209 -4.1162 -1.1479 -6.5463 6.6413 -0.5374 26.1577 3.0711 0.7547 9.2991 -0.0000 0.0000 0.0000 -88.6727 -12.0341 30.9550 18.1566 -28.3572 -4.6234 -0.0000 -0.0000 15.9239 29.3883 -19.4875 -10.6409 -7.1250 0.0000 -0.0000 0.6831 7.8772 -0.5831 -0.0000 0.0000 0.0000 94.9594 -11.9605 -77.2342 -5.2910 9.0746 -0.4202 0.0000 0.0000 82.9465 -9.3556 -38.0861 5.8029 7.1250 -0.0000 -0.0000 32.9110 -65.5651 -17.1722
